<svg xmlns="http://www.w3.org/2000/svg" xmlns:xlink="http://www.w3.org/1999/xlink" id="Layer_1" x="0px" y="0px" viewBox="0 0 377.3 136.1" style="enable-background:new 0 0 377.3 136.1;" xml:space="preserve"><style type="text/css">	.st0{fill:#7F8888;}	.st1{fill:#1DB2E4;}</style><g id="Grey__x26__Blue_Logo">	<g>		<path class="st0" d="M67,23.6c4.9,0,9,0.4,12.9,1.7c5.5,1.6,8.7,7.4,7.1,12.9c-1.6,5.5-7.4,8.7-12.9,7.1   c-6.4-1.8-13.2-0.9-18.9,2.6c-6.4,3.6-10.7,10-11.6,17.3c-1.4,9.9,2.1,17.9,10.2,23.6c7.3,5.1,15.4,5.9,23.6,2.4   c7.9-3.4,12.6-9.6,14.3-18c0.7-3.5,0.5-7.1-0.4-10.5c-1.4-5.6,2-11.3,7.7-12.7c5.1-1.3,10.4,1.5,12.3,6.4   c1.6,5.1,2.2,10.4,1.7,15.8c-0.5,7.9-3.2,15.6-7.7,22.1c-7.8,11.2-18.4,17.8-31.9,19.5c-11.1,1.6-22.4-1.2-31.6-7.8   c-9.4-6.4-16-16.2-18.3-27.4c-2.4-11.2-1-21.8,4.6-31.8c6.6-11.7,16.5-19,29.5-22.2C60.7,23.9,63.8,23.6,67,23.6z"></path>		<path class="st1" d="M67.7,89.7c-11.6-0.1-20.9-9.5-20.8-21.1c0.1-11.6,9.5-20.9,21.1-20.8c1.8,0,3.5,0.2,5.3,0.7   c7,1.7,12.6-1,16.2-7.3c2.8-5.1,5.1-10.6,6.6-16.2c1.8-6,6.3-9.7,11.8-10c6.4-0.4,12.2,4,13.5,10.3c1.3,6.4-2.3,12.8-8.5,14.9   c-3.4,1.2-7.1,2-10.4,3.4c-3.4,1.4-6.7,2.9-9.6,5.2c-4.5,3.6-6.1,8.3-5,13.8c1,4.9,1.1,9.6-0.9,14.3   C83.7,84.8,76.1,89.8,67.7,89.7z"></path>		<polygon class="st1" points="19,78.7 19.8,81.3 22.6,81.3 20.4,83 21.2,85.6 19,83.9 16.8,85.6 17.6,83 15.4,81.3 18.1,81.3   "></polygon>		<polygon class="st1" points="22.2,88.7 23,91.3 25.8,91.3 23.5,93 24.4,95.6 22.2,93.9 20,95.6 20.8,93 18.6,91.3 21.3,91.3   "></polygon>		<polygon class="st1" points="28.5,98.3 29.4,100.9 32.1,100.9 29.9,102.5 30.8,105.1 28.5,103.5 26.3,105.1 27.2,102.5 25,100.9    27.7,100.9   "></polygon>		<polygon class="st1" points="35.7,105.5 36.6,108.1 39.3,108.1 37.1,109.7 37.9,112.3 35.7,110.7 33.5,112.3 34.3,109.7    32.1,108.1 34.9,108.1   "></polygon>		<polygon class="st1" points="45.3,111 46.1,113.7 48.9,113.7 46.6,115.3 47.5,117.9 45.3,116.3 43.1,117.9 43.9,115.3 41.7,113.7    44.4,113.7   "></polygon>		<path class="st1" d="M125.5,39.1l-6.3,3.4c14.7,28.1,3.8,62.9-24.4,77.6c-28.1,14.7-62.9,3.8-77.6-24.4s-3.8-62.9,24.4-77.6   c15.6-8.1,34.1-8.7,50.1-1.5l3-6.5C62.1-4.5,23.8,10,9.1,42.6s-0.1,71,32.5,85.6s71,0.1,85.6-32.5   C135.4,77.6,134.8,56.7,125.5,39.1z"></path>	</g>	<g>		<path class="st0" d="M155.5,93v10.9h-1.8V99h-5.1v4.9h-1.8V93h1.8v4.6h5.1V93H155.5z"></path>		<path class="st0" d="M163.1,95.8c0.5,0.4,0.9,0.9,1.2,1.5v-2h1.8v8.5h-1.8v-2c-0.2,0.6-0.6,1.1-1.2,1.5c-0.5,0.4-1.2,0.6-2,0.6   c-0.7,0-1.4-0.2-2-0.5c-0.6-0.4-1-0.9-1.4-1.5c-0.3-0.7-0.5-1.4-0.5-2.3c0-0.9,0.2-1.7,0.5-2.3s0.8-1.2,1.4-1.5   c0.6-0.4,1.2-0.5,2-0.5C161.9,95.3,162.5,95.4,163.1,95.8z M159.8,97.6c-0.5,0.5-0.7,1.2-0.7,2.1s0.2,1.6,0.7,2.1   c0.5,0.5,1.1,0.8,1.9,0.8c0.5,0,0.9-0.1,1.3-0.3c0.4-0.2,0.7-0.6,0.9-1c0.2-0.4,0.3-0.9,0.3-1.5c0-0.6-0.1-1.1-0.3-1.5   c-0.2-0.4-0.5-0.8-0.9-1s-0.8-0.3-1.3-0.3C160.9,96.8,160.2,97.1,159.8,97.6z"></path>		<path class="st0" d="M168.2,92.1c0.2-0.2,0.5-0.3,0.8-0.3c0.3,0,0.6,0.1,0.8,0.3c0.2,0.2,0.3,0.4,0.3,0.7c0,0.3-0.1,0.5-0.3,0.7   c-0.2,0.2-0.5,0.3-0.8,0.3c-0.3,0-0.6-0.1-0.8-0.3c-0.2-0.2-0.3-0.4-0.3-0.7C167.9,92.6,168,92.3,168.2,92.1z M169.9,95.4v8.5   h-1.8v-8.5H169.9z"></path>		<path class="st0" d="M175,95.7c0.5-0.3,1.2-0.5,1.9-0.5v1.9h-0.5c-0.8,0-1.4,0.2-1.9,0.6c-0.5,0.4-0.7,1-0.7,1.9v4.3H172v-8.5h1.8   V97C174.1,96.5,174.5,96,175,95.7z"></path>		<path class="st0" d="M188.9,93v1.4h-3.1v9.5H184v-9.5h-3V93H188.9z"></path>		<path class="st0" d="M193.2,95.7c0.5-0.3,1.2-0.5,1.9-0.5v1.9h-0.5c-0.8,0-1.4,0.2-1.9,0.6c-0.5,0.4-0.7,1-0.7,1.9v4.3h-1.8v-8.5   h1.8V97C192.2,96.5,192.6,96,193.2,95.7z"></path>		<path class="st0" d="M201.8,95.8c0.5,0.4,0.9,0.9,1.2,1.5v-2h1.8v8.5h-1.8v-2c-0.2,0.6-0.6,1.1-1.2,1.5c-0.5,0.4-1.2,0.6-2,0.6   c-0.7,0-1.4-0.2-2-0.5c-0.6-0.4-1-0.9-1.4-1.5c-0.3-0.7-0.5-1.4-0.5-2.3c0-0.9,0.2-1.7,0.5-2.3s0.8-1.2,1.4-1.5   c0.6-0.4,1.2-0.5,2-0.5C200.6,95.3,201.2,95.4,201.8,95.8z M198.4,97.6c-0.5,0.5-0.7,1.2-0.7,2.1s0.2,1.6,0.7,2.1   c0.5,0.5,1.1,0.8,1.9,0.8c0.5,0,0.9-0.1,1.3-0.3c0.4-0.2,0.7-0.6,0.9-1c0.2-0.4,0.3-0.9,0.3-1.5c0-0.6-0.1-1.1-0.3-1.5   c-0.2-0.4-0.5-0.8-0.9-1s-0.8-0.3-1.3-0.3C199.5,96.8,198.9,97.1,198.4,97.6z"></path>		<path class="st0" d="M214,96.2c0.6,0.6,0.9,1.6,0.9,2.7v5h-1.8v-4.8c0-0.8-0.2-1.4-0.6-1.8c-0.4-0.4-0.9-0.6-1.6-0.6   c-0.7,0-1.3,0.2-1.7,0.7c-0.4,0.4-0.6,1.1-0.6,2v4.5h-1.8v-8.5h1.8v1.9c0.2-0.6,0.6-1.1,1.1-1.5c0.5-0.4,1.2-0.5,1.9-0.5   C212.6,95.2,213.4,95.5,214,96.2z"></path>		<path class="st0" d="M222.1,96c0.6,0.5,1,1.2,1.1,2.1h-1.7c-0.1-0.5-0.3-0.8-0.6-1.1c-0.3-0.3-0.8-0.4-1.3-0.4   c-0.4,0-0.8,0.1-1,0.3c-0.2,0.2-0.4,0.5-0.4,0.9c0,0.3,0.1,0.5,0.3,0.7c0.2,0.2,0.4,0.3,0.7,0.4c0.3,0.1,0.6,0.2,1.1,0.3   c0.6,0.1,1.2,0.3,1.6,0.4s0.7,0.4,1,0.7c0.3,0.3,0.4,0.8,0.4,1.4c0,0.7-0.3,1.3-0.8,1.7c-0.5,0.4-1.3,0.7-2.2,0.7   c-1.1,0-1.9-0.2-2.6-0.7c-0.7-0.5-1.1-1.2-1.2-2.1h1.7c0.1,0.5,0.3,0.8,0.6,1.1s0.8,0.4,1.4,0.4c0.4,0,0.8-0.1,1-0.3   c0.2-0.2,0.4-0.5,0.4-0.8c0-0.3-0.1-0.5-0.3-0.7c-0.2-0.2-0.4-0.3-0.7-0.4c-0.3-0.1-0.7-0.2-1.1-0.3c-0.6-0.1-1.1-0.3-1.5-0.4   c-0.4-0.1-0.7-0.4-1-0.7s-0.4-0.8-0.4-1.3c0-0.7,0.3-1.3,0.8-1.8c0.5-0.4,1.3-0.7,2.3-0.7C220.7,95.3,221.5,95.5,222.1,96z"></path>		<path class="st0" d="M232,95.8c0.6,0.4,1,0.9,1.4,1.5c0.3,0.7,0.5,1.4,0.5,2.3c0,0.9-0.2,1.7-0.5,2.3c-0.3,0.7-0.8,1.2-1.4,1.5   c-0.6,0.4-1.2,0.5-2,0.5c-0.8,0-1.4-0.2-2-0.6c-0.5-0.4-0.9-0.9-1.1-1.5v6h-1.8V95.4h1.8v2c0.2-0.6,0.6-1.1,1.1-1.5   c0.5-0.4,1.2-0.6,2-0.6C230.7,95.3,231.4,95.4,232,95.8z M228.1,97.2c-0.4,0.2-0.7,0.6-0.9,1c-0.2,0.4-0.3,0.9-0.3,1.5   c0,0.6,0.1,1.1,0.3,1.5c0.2,0.4,0.5,0.8,0.9,1c0.4,0.2,0.8,0.3,1.3,0.3c0.8,0,1.4-0.3,1.9-0.8c0.5-0.5,0.7-1.2,0.7-2.1   c0-0.9-0.2-1.6-0.7-2.1c-0.5-0.5-1.1-0.8-1.9-0.8C229,96.8,228.5,96.9,228.1,97.2z"></path>		<path class="st0" d="M237.3,92.4v11.5h-1.8V92.4H237.3z"></path>		<path class="st0" d="M244.9,95.8c0.5,0.4,0.9,0.9,1.2,1.5v-2h1.8v8.5H246v-2c-0.2,0.6-0.6,1.1-1.2,1.5c-0.5,0.4-1.2,0.6-2,0.6   c-0.7,0-1.4-0.2-2-0.5c-0.6-0.4-1-0.9-1.4-1.5c-0.3-0.7-0.5-1.4-0.5-2.3c0-0.9,0.2-1.7,0.5-2.3c0.3-0.7,0.8-1.2,1.4-1.5   c0.6-0.4,1.2-0.5,2-0.5C243.7,95.3,244.3,95.4,244.9,95.8z M241.5,97.6c-0.5,0.5-0.7,1.2-0.7,2.1s0.2,1.6,0.7,2.1s1.1,0.8,1.9,0.8   c0.5,0,0.9-0.1,1.3-0.3c0.4-0.2,0.7-0.6,0.9-1c0.2-0.4,0.3-0.9,0.3-1.5c0-0.6-0.1-1.1-0.3-1.5c-0.2-0.4-0.5-0.8-0.9-1   s-0.8-0.3-1.3-0.3C242.6,96.8,242,97.1,241.5,97.6z"></path>		<path class="st0" d="M257.1,96.2c0.6,0.6,0.9,1.6,0.9,2.7v5h-1.8v-4.8c0-0.8-0.2-1.4-0.6-1.8c-0.4-0.4-0.9-0.6-1.6-0.6   c-0.7,0-1.3,0.2-1.7,0.7c-0.4,0.4-0.6,1.1-0.6,2v4.5h-1.8v-8.5h1.8v1.9c0.2-0.6,0.6-1.1,1.1-1.5c0.5-0.4,1.2-0.5,1.9-0.5   C255.7,95.2,256.5,95.5,257.1,96.2z"></path>		<path class="st0" d="M264.3,102.4v1.5h-1.1c-0.9,0-1.6-0.2-2.1-0.7s-0.7-1.2-0.7-2.2v-4.2h-1.2v-1.5h1.2v-2.1h1.8v2.1h2.1v1.5   h-2.1v4.2c0,0.5,0.1,0.8,0.3,1c0.2,0.2,0.5,0.3,1,0.3H264.3z"></path>		<path class="st0" d="M271.4,99.7v4.2h-1.8V93h3.7c1.3,0,2.2,0.3,2.8,0.9c0.6,0.6,1,1.4,1,2.5c0,1-0.3,1.8-1,2.4s-1.6,0.9-2.8,0.9   H271.4z M275.3,96.3c0-0.6-0.2-1.1-0.5-1.4s-0.9-0.5-1.7-0.5h-1.8v3.8h1.8C274.6,98.2,275.3,97.6,275.3,96.3z"></path>		<path class="st0" d="M281.7,95.7c0.5-0.3,1.2-0.5,1.9-0.5v1.9H283c-0.8,0-1.4,0.2-1.9,0.6s-0.7,1-0.7,1.9v4.3h-1.8v-8.5h1.8V97   C280.7,96.5,281.1,96,281.7,95.7z"></path>		<path class="st0" d="M291,95.8c0.7,0.4,1.2,0.9,1.5,1.5c0.4,0.7,0.6,1.4,0.6,2.3c0,0.9-0.2,1.7-0.6,2.3c-0.4,0.7-0.9,1.2-1.5,1.5   c-0.7,0.4-1.4,0.5-2.2,0.5s-1.6-0.2-2.2-0.5c-0.7-0.4-1.2-0.9-1.5-1.5s-0.6-1.4-0.6-2.3s0.2-1.7,0.6-2.3s0.9-1.2,1.5-1.5   c0.7-0.4,1.4-0.5,2.2-0.5S290.3,95.4,291,95.8z M287.5,97.1c-0.4,0.2-0.7,0.5-0.9,1c-0.2,0.4-0.3,1-0.3,1.6c0,0.6,0.1,1.2,0.3,1.6   c0.2,0.4,0.5,0.7,0.9,0.9c0.4,0.2,0.8,0.3,1.3,0.3c0.5,0,0.9-0.1,1.3-0.3c0.4-0.2,0.7-0.5,0.9-0.9c0.2-0.4,0.3-0.9,0.3-1.6   c0-0.6-0.1-1.1-0.3-1.6c-0.2-0.4-0.5-0.7-0.9-1c-0.4-0.2-0.8-0.3-1.3-0.3C288.3,96.8,287.9,96.9,287.5,97.1z"></path>		<path class="st0" d="M297.3,93.9c-0.3,0.3-0.4,0.7-0.4,1.3v0.1h1.9v1.5h-1.9v7h-1.8v-7h-1.2v-1.5h1.2v-0.3c0-1,0.3-1.8,0.9-2.3   c0.6-0.5,1.5-0.8,2.7-0.7v1.5C298.1,93.6,297.6,93.7,297.3,93.9z"></path>		<path class="st0" d="M308.1,100h-6.6c0,0.9,0.3,1.5,0.7,2c0.5,0.4,1,0.6,1.7,0.6c0.6,0,1.1-0.1,1.5-0.4c0.4-0.3,0.7-0.7,0.8-1.2   h1.9c-0.1,0.6-0.4,1.1-0.7,1.6c-0.4,0.5-0.8,0.8-1.4,1.1c-0.6,0.3-1.2,0.4-1.9,0.4c-0.8,0-1.6-0.2-2.2-0.5   c-0.6-0.4-1.1-0.9-1.5-1.5c-0.4-0.7-0.5-1.4-0.5-2.3c0-0.9,0.2-1.7,0.5-2.3s0.9-1.2,1.5-1.5c0.6-0.4,1.4-0.5,2.2-0.5   c0.8,0,1.6,0.2,2.2,0.5c0.6,0.3,1.1,0.8,1.4,1.4c0.3,0.6,0.5,1.3,0.5,2C308.1,99.5,308.1,99.8,308.1,100z M306,97.8   c-0.2-0.4-0.5-0.7-0.9-0.8c-0.4-0.2-0.8-0.3-1.2-0.3c-0.7,0-1.3,0.2-1.7,0.6c-0.5,0.4-0.7,1-0.8,1.9h4.8   C306.4,98.6,306.3,98.2,306,97.8z"></path>		<path class="st0" d="M315,96c0.6,0.5,1,1.2,1.1,2.1h-1.7c-0.1-0.5-0.3-0.8-0.6-1.1c-0.3-0.3-0.8-0.4-1.3-0.4c-0.4,0-0.8,0.1-1,0.3   c-0.2,0.2-0.4,0.5-0.4,0.9c0,0.3,0.1,0.5,0.3,0.7c0.2,0.2,0.4,0.3,0.7,0.4c0.3,0.1,0.6,0.2,1.1,0.3c0.6,0.1,1.2,0.3,1.6,0.4   s0.7,0.4,1,0.7c0.3,0.3,0.4,0.8,0.4,1.4c0,0.7-0.3,1.3-0.8,1.7c-0.5,0.4-1.3,0.7-2.2,0.7c-1.1,0-1.9-0.2-2.6-0.7   c-0.7-0.5-1.1-1.2-1.2-2.1h1.7c0.1,0.5,0.3,0.8,0.6,1.1s0.8,0.4,1.4,0.4c0.4,0,0.8-0.1,1-0.3c0.2-0.2,0.4-0.5,0.4-0.8   c0-0.3-0.1-0.5-0.3-0.7c-0.2-0.2-0.4-0.3-0.7-0.4c-0.3-0.1-0.7-0.2-1.1-0.3c-0.6-0.1-1.1-0.3-1.5-0.4c-0.4-0.1-0.7-0.4-1-0.7   s-0.4-0.8-0.4-1.3c0-0.7,0.3-1.3,0.8-1.8c0.5-0.4,1.3-0.7,2.3-0.7C313.6,95.3,314.4,95.5,315,96z"></path>		<path class="st0" d="M323.2,96c0.6,0.5,1,1.2,1.1,2.1h-1.7c-0.1-0.5-0.3-0.8-0.6-1.1c-0.3-0.3-0.8-0.4-1.3-0.4   c-0.4,0-0.8,0.1-1,0.3c-0.2,0.2-0.4,0.5-0.4,0.9c0,0.3,0.1,0.5,0.3,0.7c0.2,0.2,0.4,0.3,0.7,0.4c0.3,0.1,0.6,0.2,1.1,0.3   c0.6,0.1,1.2,0.3,1.6,0.4s0.7,0.4,1,0.7c0.3,0.3,0.4,0.8,0.4,1.4c0,0.7-0.3,1.3-0.8,1.7c-0.5,0.4-1.3,0.7-2.2,0.7   c-1.1,0-1.9-0.2-2.6-0.7c-0.7-0.5-1.1-1.2-1.2-2.1h1.7c0.1,0.5,0.3,0.8,0.6,1.1s0.8,0.4,1.4,0.4c0.4,0,0.8-0.1,1-0.3   c0.2-0.2,0.4-0.5,0.4-0.8c0-0.3-0.1-0.5-0.3-0.7c-0.2-0.2-0.4-0.3-0.7-0.4c-0.3-0.1-0.7-0.2-1.1-0.3c-0.6-0.1-1.1-0.3-1.5-0.4   c-0.4-0.1-0.7-0.4-1-0.7s-0.4-0.8-0.4-1.3c0-0.7,0.3-1.3,0.8-1.8c0.5-0.4,1.3-0.7,2.3-0.7C321.8,95.3,322.6,95.5,323.2,96z"></path>		<path class="st0" d="M326.2,92.1c0.2-0.2,0.5-0.3,0.8-0.3s0.6,0.1,0.8,0.3c0.2,0.2,0.3,0.4,0.3,0.7c0,0.3-0.1,0.5-0.3,0.7   c-0.2,0.2-0.5,0.3-0.8,0.3s-0.6-0.1-0.8-0.3c-0.2-0.2-0.3-0.4-0.3-0.7C325.9,92.6,326,92.3,326.2,92.1z M327.9,95.4v8.5h-1.8v-8.5   H327.9z"></path>		<path class="st0" d="M336.2,95.8c0.7,0.4,1.2,0.9,1.5,1.5c0.4,0.7,0.6,1.4,0.6,2.3c0,0.9-0.2,1.7-0.6,2.3   c-0.4,0.7-0.9,1.2-1.5,1.5c-0.7,0.4-1.4,0.5-2.2,0.5s-1.6-0.2-2.2-0.5c-0.7-0.4-1.2-0.9-1.5-1.5s-0.6-1.4-0.6-2.3s0.2-1.7,0.6-2.3   s0.9-1.2,1.5-1.5c0.7-0.4,1.4-0.5,2.2-0.5S335.5,95.4,336.2,95.8z M332.7,97.1c-0.4,0.2-0.7,0.5-0.9,1c-0.2,0.4-0.3,1-0.3,1.6   c0,0.6,0.1,1.2,0.3,1.6c0.2,0.4,0.5,0.7,0.9,0.9c0.4,0.2,0.8,0.3,1.3,0.3c0.5,0,0.9-0.1,1.3-0.3c0.4-0.2,0.7-0.5,0.9-0.9   c0.2-0.4,0.3-0.9,0.3-1.6c0-0.6-0.1-1.1-0.3-1.6c-0.2-0.4-0.5-0.7-0.9-1c-0.4-0.2-0.8-0.3-1.3-0.3   C333.5,96.8,333.1,96.9,332.7,97.1z"></path>		<path class="st0" d="M347.2,96.2c0.6,0.6,0.9,1.6,0.9,2.7v5h-1.8v-4.8c0-0.8-0.2-1.4-0.6-1.8c-0.4-0.4-0.9-0.6-1.6-0.6   c-0.7,0-1.3,0.2-1.7,0.7c-0.4,0.4-0.6,1.1-0.6,2v4.5H340v-8.5h1.8v1.9c0.2-0.6,0.6-1.1,1.1-1.5c0.5-0.4,1.2-0.5,1.9-0.5   C345.8,95.2,346.6,95.5,347.2,96.2z"></path>		<path class="st0" d="M355.5,95.8c0.5,0.4,0.9,0.9,1.2,1.5v-2h1.8v8.5h-1.8v-2c-0.2,0.6-0.6,1.1-1.2,1.5c-0.5,0.4-1.2,0.6-2,0.6   c-0.7,0-1.4-0.2-2-0.5c-0.6-0.4-1-0.9-1.4-1.5c-0.3-0.7-0.5-1.4-0.5-2.3c0-0.9,0.2-1.7,0.5-2.3c0.3-0.7,0.8-1.2,1.4-1.5   c0.6-0.4,1.2-0.5,2-0.5C354.3,95.3,355,95.4,355.5,95.8z M352.2,97.6c-0.5,0.5-0.7,1.2-0.7,2.1s0.2,1.6,0.7,2.1s1.1,0.8,1.9,0.8   c0.5,0,0.9-0.1,1.3-0.3c0.4-0.2,0.7-0.6,0.9-1c0.2-0.4,0.3-0.9,0.3-1.5c0-0.6-0.1-1.1-0.3-1.5c-0.2-0.4-0.5-0.8-0.9-1   s-0.8-0.3-1.3-0.3C353.3,96.8,352.7,97.1,352.2,97.6z"></path>		<path class="st0" d="M362.4,92.4v11.5h-1.8V92.4H362.4z"></path>		<path class="st0" d="M369.7,96c0.6,0.5,1,1.2,1.1,2.1h-1.7c-0.1-0.5-0.3-0.8-0.6-1.1c-0.3-0.3-0.8-0.4-1.3-0.4   c-0.4,0-0.8,0.1-1,0.3c-0.2,0.2-0.4,0.5-0.4,0.9c0,0.3,0.1,0.5,0.3,0.7c0.2,0.2,0.4,0.3,0.7,0.4c0.3,0.1,0.6,0.2,1.1,0.3   c0.6,0.1,1.2,0.3,1.6,0.4s0.7,0.4,1,0.7c0.3,0.3,0.4,0.8,0.4,1.4c0,0.7-0.3,1.3-0.8,1.7c-0.5,0.4-1.3,0.7-2.2,0.7   c-1.1,0-1.9-0.2-2.6-0.7c-0.7-0.5-1.1-1.2-1.2-2.1h1.7c0.1,0.5,0.3,0.8,0.6,1.1s0.8,0.4,1.4,0.4c0.4,0,0.8-0.1,1-0.3   c0.2-0.2,0.4-0.5,0.4-0.8c0-0.3-0.1-0.5-0.3-0.7c-0.2-0.2-0.4-0.3-0.7-0.4c-0.3-0.1-0.7-0.2-1.1-0.3c-0.6-0.1-1.1-0.3-1.5-0.4   c-0.4-0.1-0.7-0.4-1-0.7s-0.4-0.8-0.4-1.3c0-0.7,0.3-1.3,0.8-1.8c0.5-0.4,1.3-0.7,2.3-0.7C368.3,95.3,369.1,95.5,369.7,96z"></path>	</g>	<g>		<g>			<path class="st1" d="M170.3,63.2c1,1.3,1.6,2.8,1.6,4.6c0,2.5-0.8,4.5-2.5,6c-1.7,1.4-4.1,2.1-7.3,2.1h-13.8V46.2h13.5    c3,0,5.3,0.7,7,2c1.6,1.3,2.5,3.2,2.5,5.6c0,1.8-0.5,3.3-1.4,4.5c-1,1.2-2.2,2-3.7,2.3C167.8,61,169.2,61.9,170.3,63.2z     M155.4,58.4h4.7c2.5,0,3.7-1.1,3.7-3.2S162.6,52,160,52h-4.6V58.4z M164.5,66.8c0-1.1-0.3-1.9-1-2.5c-0.7-0.6-1.7-0.9-3-0.9    h-5.1V70h5.1C163.2,70,164.5,69,164.5,66.8z"></path>			<path class="st1" d="M182.8,44.9v31h-7.2v-31H182.8z"></path>			<path class="st1" d="M211,52.5v23.4h-7.2v-4.2c-0.7,1.4-1.7,2.5-3,3.3c-1.3,0.8-2.9,1.2-4.6,1.2c-2.7,0-4.8-0.9-6.4-2.7    c-1.6-1.8-2.4-4.2-2.4-7.4V52.5h7.1v12.7c0,1.6,0.4,2.8,1.2,3.7c0.8,0.9,1.9,1.3,3.3,1.3c1.5,0,2.6-0.5,3.4-1.4    c0.8-0.9,1.3-2.2,1.3-3.9V52.5H211z"></path>			<path class="st1" d="M237.9,65.5h-16.2c0.1,1.8,0.5,3,1.3,3.8c0.8,0.8,1.8,1.2,3.1,1.2c1.1,0,1.9-0.3,2.6-0.8    c0.7-0.5,1.2-1.2,1.4-2.1h7.6c-0.3,1.6-1,3.1-2,4.4c-1,1.3-2.3,2.3-3.9,3.1c-1.6,0.7-3.4,1.1-5.3,1.1c-2.3,0-4.3-0.5-6.1-1.4    s-3.2-2.4-4.2-4.2c-1-1.8-1.5-3.9-1.5-6.4c0-2.5,0.5-4.6,1.5-6.4c1-1.8,2.4-3.2,4.2-4.1c1.8-1,3.8-1.4,6.1-1.4    c2.3,0,4.4,0.5,6.1,1.4c1.8,1,3.1,2.3,4.1,4c1,1.7,1.4,3.7,1.4,5.9C238.1,64.1,238.1,64.8,237.9,65.5z M229.7,59    c-0.9-0.8-1.9-1.2-3.2-1.2c-1.3,0-2.4,0.4-3.3,1.2c-0.9,0.8-1.4,1.9-1.5,3.4h9.1C230.9,60.9,230.5,59.8,229.7,59z"></path>			<path class="st1" d="M275.2,46.5v29.4H268V57.5l-6.4,18.4h-6.2L249,57.4v18.4h-7.2V46.5h8.8l8,20.5l7.8-20.5H275.2z"></path>			<path class="st1" d="M293.6,53.4c1.3,0.8,2.2,1.9,2.8,3.3v-4.2h7.1v23.4h-7.1v-4.2c-0.6,1.4-1.6,2.5-2.8,3.3    c-1.3,0.8-2.8,1.2-4.6,1.2c-1.9,0-3.7-0.5-5.2-1.4c-1.5-1-2.7-2.4-3.6-4.2c-0.9-1.8-1.3-3.9-1.3-6.4c0-2.5,0.4-4.6,1.3-6.4    s2.1-3.2,3.6-4.1c1.5-1,3.2-1.4,5.2-1.4C290.8,52.2,292.3,52.6,293.6,53.4z M287.6,60c-0.9,1-1.4,2.4-1.4,4.2    c0,1.8,0.5,3.2,1.4,4.2c0.9,1,2.2,1.5,3.7,1.5c1.5,0,2.7-0.5,3.7-1.5s1.4-2.4,1.4-4.1c0-1.8-0.5-3.1-1.4-4.2    c-1-1-2.2-1.5-3.7-1.5C289.8,58.5,288.5,59,287.6,60z"></path>			<path class="st1" d="M322,53.4c1.3,0.8,2.2,1.9,2.8,3.3v-4.2h7.1v23.3c0,2.2-0.4,4.1-1.3,5.9c-0.8,1.7-2.1,3.1-3.9,4.2    c-1.7,1-3.9,1.6-6.5,1.6c-3.5,0-6.3-0.8-8.4-2.5c-2.1-1.7-3.4-3.9-3.8-6.8h7.1c0.2,1,0.7,1.7,1.5,2.2c0.8,0.5,1.8,0.8,3.1,0.8    c1.5,0,2.7-0.4,3.6-1.3s1.4-2.2,1.4-4.1v-4.1c-0.6,1.4-1.6,2.5-2.8,3.3c-1.3,0.8-2.8,1.2-4.6,1.2c-1.9,0-3.7-0.5-5.2-1.4    c-1.5-1-2.7-2.4-3.6-4.2c-0.9-1.8-1.3-3.9-1.3-6.4c0-2.5,0.4-4.6,1.3-6.4s2.1-3.2,3.6-4.1c1.5-1,3.2-1.4,5.2-1.4    C319.2,52.2,320.8,52.6,322,53.4z M316,60c-0.9,1-1.4,2.4-1.4,4.2c0,1.8,0.5,3.2,1.4,4.2c0.9,1,2.2,1.5,3.7,1.5    c1.5,0,2.7-0.5,3.7-1.5s1.4-2.4,1.4-4.1c0-1.8-0.5-3.1-1.4-4.2c-1-1-2.2-1.5-3.7-1.5C318.2,58.5,317,59,316,60z"></path>			<path class="st1" d="M337.5,43.2c0.8-0.7,1.8-1.1,3.1-1.1s2.3,0.4,3.1,1.1c0.8,0.7,1.2,1.6,1.2,2.7c0,1.1-0.4,1.9-1.2,2.7    c-0.8,0.7-1.8,1.1-3.1,1.1s-2.3-0.4-3.1-1.1c-0.8-0.7-1.2-1.6-1.2-2.7C336.3,44.8,336.7,43.9,337.5,43.2z M344.1,52.5v23.4H337    V52.5H344.1z"></path>			<path class="st1" d="M367.2,54.7c2,1.7,3.3,3.9,3.9,6.9h-7.6c-0.2-1-0.7-1.8-1.4-2.3c-0.7-0.6-1.6-0.8-2.6-0.8    c-1.3,0-2.3,0.5-3.1,1.5c-0.8,1-1.2,2.4-1.2,4.3c0,1.9,0.4,3.3,1.2,4.3c0.8,1,1.8,1.5,3.1,1.5c1.1,0,1.9-0.3,2.6-0.8    c0.7-0.6,1.2-1.3,1.4-2.3h7.6c-0.5,2.9-1.8,5.2-3.9,6.9c-2,1.7-4.6,2.5-7.6,2.5c-2.3,0-4.3-0.5-6.1-1.4s-3.2-2.4-4.2-4.2    c-1-1.8-1.5-3.9-1.5-6.4c0-2.5,0.5-4.6,1.5-6.4c1-1.8,2.4-3.2,4.2-4.1c1.8-1,3.8-1.4,6.1-1.4C362.6,52.2,365.2,53,367.2,54.7z"></path>		</g>		<g>			<path class="st0" d="M339.4,77.5c0.6,0.5,1,1.1,1.2,1.9h-1.6c-0.2-0.4-0.4-0.6-0.7-0.8c-0.3-0.2-0.7-0.3-1.2-0.3    c-0.4,0-0.8,0.1-1.2,0.3c-0.3,0.2-0.6,0.5-0.8,0.9c-0.2,0.4-0.3,0.8-0.3,1.3c0,0.8,0.2,1.5,0.7,1.9s1,0.7,1.8,0.7    c0.6,0,1-0.2,1.4-0.5c0.4-0.3,0.7-0.8,0.8-1.4h-2.6v-1.1h3.9v1.5c-0.1,0.5-0.3,1-0.6,1.4c-0.3,0.4-0.7,0.8-1.3,1    c-0.5,0.3-1.1,0.4-1.8,0.4c-0.8,0-1.4-0.2-2-0.5c-0.6-0.3-1-0.8-1.4-1.4c-0.3-0.6-0.5-1.3-0.5-2.1c0-0.8,0.2-1.5,0.5-2.1    c0.3-0.6,0.8-1.1,1.4-1.4c0.6-0.3,1.3-0.5,2-0.5C337.9,76.8,338.7,77.1,339.4,77.5z"></path>			<path class="st0" d="M344.3,78.8c0.4-0.2,0.8-0.3,1.3-0.3v1.7h-0.5c-1.1,0-1.7,0.5-1.7,1.6v3h-1.6v-6.1h1.6v1.2    C343.7,79.4,344,79.1,344.3,78.8z"></path>			<path class="st0" d="M350.9,78.9c0.5,0.3,0.8,0.6,1.1,1.1s0.4,1,0.4,1.7s-0.1,1.2-0.4,1.7s-0.6,0.8-1.1,1.1    c-0.5,0.3-1,0.4-1.6,0.4c-0.6,0-1.1-0.1-1.6-0.4c-0.5-0.3-0.8-0.6-1.1-1.1c-0.3-0.5-0.4-1-0.4-1.7s0.1-1.2,0.4-1.7    c0.3-0.5,0.6-0.8,1.1-1.1s1-0.4,1.6-0.4C349.9,78.5,350.4,78.6,350.9,78.9z M348.2,80.3c-0.3,0.3-0.5,0.8-0.5,1.3    c0,0.6,0.2,1,0.5,1.3c0.3,0.3,0.7,0.5,1.1,0.5c0.4,0,0.8-0.2,1.1-0.5c0.3-0.3,0.5-0.8,0.5-1.3c0-0.6-0.2-1-0.5-1.3    c-0.3-0.3-0.7-0.5-1.1-0.5C348.9,79.9,348.5,80,348.2,80.3z"></path>			<path class="st0" d="M359.4,78.6v6.1h-1.6v-1.2c-0.2,0.4-0.4,0.7-0.8,1c-0.4,0.2-0.8,0.3-1.3,0.3c-0.7,0-1.3-0.2-1.7-0.7    c-0.4-0.5-0.6-1.1-0.6-1.9v-3.6h1.5V82c0,0.5,0.1,0.9,0.4,1.1c0.3,0.3,0.6,0.4,1,0.4c0.4,0,0.8-0.1,1.1-0.4    c0.3-0.3,0.4-0.7,0.4-1.2v-3.3H359.4z"></path>			<path class="st0" d="M365.9,78.9c0.4,0.3,0.7,0.6,1,1.1s0.3,1,0.3,1.7s-0.1,1.2-0.3,1.7s-0.6,0.8-1,1.1c-0.4,0.3-0.9,0.4-1.4,0.4    c-0.5,0-1-0.1-1.3-0.4s-0.6-0.6-0.8-1v4.2h-1.6v-9h1.6v1.3c0.2-0.4,0.4-0.7,0.8-1c0.4-0.2,0.8-0.4,1.3-0.4    C365,78.5,365.5,78.6,365.9,78.9z M362.8,80.4c-0.3,0.3-0.5,0.8-0.5,1.3c0,0.5,0.2,1,0.5,1.3c0.3,0.3,0.7,0.5,1.2,0.5    c0.5,0,0.9-0.2,1.2-0.5s0.4-0.7,0.4-1.3s-0.1-1-0.4-1.3c-0.3-0.3-0.7-0.5-1.2-0.5C363.5,79.9,363.1,80,362.8,80.4z"></path>		</g>	</g></g></svg>